<svg
  xmlns="http://www.w3.org/2000/svg"
  xmlns:xlink="http://www.w3.org/1999/xlink"
  xmlns:serif="http://www.serif.com/"
  width="407px"
  height="325px"
  version="1.1"
  xml:space="preserve"
  style="
    fill-rule: evenodd;
    clip-rule: evenodd;
    stroke-linejoin: round;
    stroke-miterlimit: 2;
  "
>
  <rect
    id="Artboard1"
    x="-814.474"
    y="-466.148"
    width="1920"
    height="1080"
    style="fill: none"
  />
  <g id="Artboard11" serif:id="Artboard1">
    <g>
      <path
        d="M195.851,41.147L195.851,285.175C193.765,282.588 192.72,280.987 192.72,280.987L189.045,57.676C189.045,57.676 190.738,50.47 195.851,41.147ZM200.851,290.891L200.851,33.125C204.541,27.887 209.277,22.454 215.301,17.537L215.301,303.74C209.286,299.266 204.467,294.726 200.851,290.891ZM220.301,307.247L220.301,13.793C221.309,13.103 222.347,12.428 223.417,11.772L223.417,309.229C222.35,308.576 221.312,307.915 220.301,307.247ZM228.417,312.103L228.417,8.963C232.391,6.927 236.743,5.145 241.506,3.711L241.506,318.016C236.805,316.282 232.442,314.272 228.417,312.103ZM246.506,319.711L246.506,2.375C249.338,1.71 252.304,1.165 255.408,0.757L255.408,322.024C252.328,321.374 249.36,320.595 246.506,319.711ZM260.408,322.947L260.408,0.231C261.246,0.164 262.094,0.107 262.952,0.06C263.142,0.049 263.333,0.04 263.524,0.031L263.524,323.392C262.473,323.259 261.435,323.11 260.408,322.947ZM268.524,323.902L268.524,0C269.556,0.033 270.596,0.089 271.64,0.169L271.64,324.095C270.591,324.046 269.552,323.981 268.524,323.902ZM276.64,324.213L276.64,0.72C283.855,1.755 291.219,3.827 298.349,6.759L298.349,323.025C291.247,323.827 283.99,324.213 276.64,324.213ZM303.349,322.387L303.349,8.975C304.396,9.473 305.435,9.989 306.465,10.523L306.465,321.913C305.43,322.08 304.392,322.238 303.349,322.387ZM311.465,321.024L311.465,13.292C318.368,17.37 324.761,22.25 330.223,27.735L330.223,316.106C324.171,318.145 317.902,319.775 311.465,321.024ZM335.223,314.31L335.223,33.251C336.319,34.584 337.36,35.946 338.34,37.333L338.34,313.07C337.308,313.496 336.269,313.909 335.223,314.31ZM343.34,310.874L343.34,45.714C344.597,48.276 345.644,50.903 346.456,53.583L346.456,309.366C345.426,309.883 344.387,310.386 343.34,310.874ZM351.456,306.7L351.456,67.373C352.443,69.634 353.484,71.826 354.572,73.958L354.572,304.871C353.544,305.497 352.505,306.107 351.456,306.7ZM359.572,301.638L359.572,82.89C361.609,86.238 363.743,89.455 365.934,92.589L365.934,296.913C363.87,298.57 361.748,300.144 359.572,301.638ZM370.934,292.633L370.934,99.511C371.969,100.905 373.009,102.29 374.051,103.669L374.051,289.667C373.03,290.68 371.991,291.669 370.934,292.633ZM379.051,284.338L379.051,110.272C380.095,111.657 381.136,113.044 382.167,114.437L382.167,280.597C381.152,281.875 380.113,283.122 379.051,284.338ZM387.167,273.747L387.167,121.393C391.335,127.403 395.229,133.671 398.547,140.547L398.547,251.92C395.376,259.939 391.555,267.2 387.167,273.747ZM403.547,236.609L403.547,152.796C404.762,156.417 405.811,160.218 406.663,164.236L406.663,221.908C405.824,227.027 404.781,231.926 403.547,236.609Z"
        style="fill: rgb(49, 105, 78)"
      />
      <g>
        <path
          d="M8.992,205.175L8.992,205.168C8.992,203.853 9.313,121.803 93.601,96.419C95.409,95.786 109.228,90.826 114.123,85.372C120.43,78.343 147.031,49.6 179.706,49.6C213.3,49.6 246.415,76.05 246.415,115.101C246.415,133.974 240.395,147.683 234.282,159.92C228.972,170.55 223.415,179.837 223.415,191.2C223.415,217.152 206.973,306.587 106.692,306.587C70.033,306.587 8.997,269.004 8.992,205.175ZM21,205.168C21,261.306 74.452,294.579 106.692,294.579C196.597,294.579 211.408,214.467 211.408,191.2C211.408,180.406 215.289,171.079 220.131,161.336C226.4,148.722 234.408,135.263 234.408,115.101C234.408,83.143 207.198,61.608 179.706,61.608C151.296,61.608 128.544,87.281 123.06,93.392C116.51,100.69 97.456,107.79 97.456,107.79C97.357,107.826 97.258,107.859 97.157,107.889C20.94,130.774 21,205.152 21,205.152L21,205.168Z"
          style="fill: rgb(153, 193, 61)"
        />
        <path
          d="M16.903,204.71C16.903,204.71 16.696,127.228 95.977,103.423C95.977,103.423 112.949,97.341 118.745,90.882C124.541,84.424 148.801,57.676 178.827,57.676C208.853,57.676 238.505,81.263 238.505,116.167C238.505,151.071 215.894,166.786 215.894,190.979C215.894,215.171 200.532,298.511 107.048,298.511C73.18,298.511 16.903,263.681 16.903,204.71Z"
          style="fill: rgb(221, 225, 44)"
        />
        <path
          d="M0,204.75C-0.004,203.96 -0.227,114.661 91.116,87.235L90.274,87.512C90.274,87.512 102.207,84.004 106.166,79.593C113.121,71.842 142.794,40.773 178.827,40.773C217.441,40.773 255.408,71.279 255.408,116.167C255.408,136.772 248.994,151.783 242.321,165.143C237.905,173.982 232.797,181.53 232.797,190.979C232.797,218.951 215.137,324.213 107.048,324.213C66.965,324.213 0,292.688 0,204.75ZM16.903,204.71C16.903,263.681 73.18,298.511 107.048,298.511C200.532,298.511 215.894,215.171 215.894,190.979C215.894,166.786 238.505,151.071 238.505,116.167C238.505,81.263 208.853,57.676 178.827,57.676C148.801,57.676 124.541,84.424 118.745,90.882C112.949,97.341 95.977,103.423 95.977,103.423C16.696,127.228 16.903,204.71 16.903,204.71Z"
          style="fill: rgb(63, 110, 42)"
        />
        <path
          d="M8.992,205.175L8.992,205.168C8.992,203.853 9.313,121.803 93.601,96.419C95.409,95.786 109.228,90.826 114.123,85.372C120.43,78.343 147.031,49.6 179.706,49.6C213.3,49.6 246.415,76.05 246.415,115.101C246.415,133.974 240.395,147.683 234.282,159.92C228.972,170.55 223.415,179.837 223.415,191.2C223.415,217.152 206.973,306.587 106.692,306.587C70.033,306.587 8.997,269.004 8.992,205.175ZM21,205.168C21,261.306 74.452,294.579 106.692,294.579C196.597,294.579 211.408,214.467 211.408,191.2C211.408,180.406 215.289,171.079 220.131,161.336C226.4,148.722 234.408,135.263 234.408,115.101C234.408,83.143 207.198,61.608 179.706,61.608C151.296,61.608 128.544,87.281 123.06,93.392C116.51,100.69 97.456,107.79 97.456,107.79C97.357,107.826 97.258,107.859 97.157,107.889C20.94,130.774 21,205.152 21,205.152L21,205.168Z"
          style="fill: rgb(153, 193, 61)"
        />
        <circle
          cx="115.052"
          cy="204.63"
          r="57.343"
          style="fill: rgb(161, 114, 44)"
        />
      </g>
    </g>
  </g>
</svg>
