<svg width="219" height="33" viewBox="0 0 219 33" fill="none" xmlns="http://www.w3.org/2000/svg">
<path d="M0 30.7319V2.07359C0 1.51409 0.206589 1.02867 0.619761 0.617193C1.03293 0.205844 1.53447 0.000106812 2.12434 0.000106812C2.69733 0.000106812 3.19495 0.205844 3.61592 0.617193C4.03689 1.02867 4.24737 1.51409 4.24737 2.07359V14.2923H17.1934V2.07359C17.1934 1.51409 17.4 1.02867 17.8132 0.617193C18.2264 0.205844 18.7279 0.000106812 19.3178 0.000106812C19.9077 0.000106812 20.4092 0.205844 20.8223 0.617193C21.2355 1.02867 21.4421 1.53058 21.4421 2.12294V30.7319C21.4421 31.2914 21.2264 31.7769 20.7964 32.1882C20.3676 32.5997 19.8739 32.8054 19.3178 32.8054C18.711 32.8054 18.2056 32.6037 17.8002 32.2006C17.3961 31.7974 17.1934 31.3079 17.1934 30.7319V18.4391H4.29804V30.7319C4.29804 31.2914 4.08365 31.7769 3.65359 32.1882C3.22353 32.5997 2.71422 32.8054 2.12434 32.8054C1.55136 32.8054 1.05372 32.6037 0.632751 32.2006C0.210484 31.7974 0 31.3079 0 30.7319Z" fill="#ADDB9D"/>
<path d="M49.6626 16.7853V21.7962C49.6626 22.3557 49.4521 22.8411 49.0298 23.2524C48.6089 23.6639 48.1112 23.8697 47.5382 23.8697H32.5198V25.0791C32.5198 25.7868 32.8316 26.3874 33.4553 26.881L34.6935 27.8931C35.3678 28.4033 36.0084 28.6583 36.6151 28.6583H47.5382C48.1112 28.6583 48.6089 28.8599 49.0298 29.2631C49.4521 29.6662 49.6626 30.1558 49.6626 30.7318C49.6626 31.2913 49.4482 31.7767 49.0181 32.1881C48.5881 32.5996 48.0943 32.8053 47.5382 32.8053H36.3371C35.5952 32.8053 34.8156 32.6531 33.9984 32.3486C33.1811 32.0441 32.5783 31.7274 32.1911 31.3983L30.2941 29.7691C29.7042 29.3084 29.2118 28.6666 28.8155 27.8438C28.4193 27.0209 28.2205 26.2639 28.2205 25.5728V16.0694C28.2205 15.5264 28.4361 14.7941 28.8662 13.8725C29.295 12.951 29.8394 12.2352 30.4968 11.725L32.2664 10.3673C33.4293 9.4458 34.7195 8.98512 36.1357 8.98512H42.102C43.6027 8.98512 45.0189 9.59395 46.3507 10.8116L47.9436 12.2928C49.0896 13.2966 49.6626 14.7941 49.6626 16.7853ZM32.5705 16.4644V19.6733H45.4646V16.7853C45.4646 16.0118 45.2203 15.4194 44.7318 15.008L43.4936 13.9465C42.853 13.4364 42.28 13.1813 41.7733 13.1813H36.4384C35.781 13.1813 35.1833 13.4035 34.6428 13.8479L33.4046 14.8599C32.8485 15.2713 32.5705 15.8062 32.5705 16.4644Z" fill="#ADDB9D"/>
<path d="M62.7632 17.8467H71.0813C71.5373 17.8467 72.1947 17.9454 73.0536 18.1429L73.0029 15.2055C73.0029 14.6295 72.7963 14.14 72.3844 13.7367C71.9713 13.3336 71.4697 13.132 70.8799 13.132H62.8139C62.2409 13.132 61.7433 12.9264 61.3223 12.5149C60.9001 12.1035 60.6896 11.618 60.6896 11.0585C60.6896 10.4826 60.8962 9.993 61.3093 9.58977C61.7225 9.18666 62.224 8.98512 62.8139 8.98512H70.8799C72.6326 8.98512 74.1281 9.58571 75.3676 10.787C76.6071 11.9884 77.2516 13.4611 77.3022 15.2055L77.8323 30.7318C77.8323 31.3078 77.6219 31.7973 77.2009 32.2005C76.7786 32.6036 76.2823 32.8053 75.7093 32.8053C75.1025 32.8053 74.588 32.6036 74.1671 32.2005C73.7448 31.7973 73.5343 31.3078 73.5343 30.7318L69.9444 32.8053H62.7632C60.9767 32.8053 59.4592 32.1963 58.2118 30.9787C56.9645 29.7608 56.3409 28.2798 56.3409 26.5355V24.1165C56.3409 22.3885 56.9684 20.9116 58.2248 19.6856C59.4799 18.4597 60.9936 17.8467 62.7632 17.8467ZM73.3823 25.9184L73.2563 24.1658C73.2394 23.5734 73.0289 23.0797 72.6235 22.6847C72.2194 22.2898 71.7218 22.0923 71.1319 22.0923H62.7632C62.1734 22.0923 61.6718 22.2939 61.2587 22.6971C60.8455 23.1002 60.6389 23.5899 60.6389 24.1658V26.4862C60.6389 27.0457 60.8494 27.5311 61.2717 27.9424C61.6926 28.3539 62.1903 28.5596 62.7632 28.5596H68.7555L73.3823 25.9184Z" fill="#ADDB9D"/>
<path d="M84.612 30.7318V11.0585C84.612 10.4826 84.8186 9.98476 85.2318 9.56517C85.6449 9.14557 86.1465 8.93565 86.7364 8.93565C87.3262 8.93565 87.8278 9.14139 88.2409 9.55286C88.6541 9.96421 88.8594 10.4661 88.8594 11.0585V13.6504L92.3246 10.7623C93.7564 9.57747 95.1557 8.98512 96.5213 8.98512H99.6318C101.384 8.98512 102.885 9.59395 104.132 10.8116C105.38 12.0295 106.003 13.494 106.003 15.2055V16.3162C106.003 16.9087 105.797 17.4106 105.384 17.822C104.971 18.2334 104.469 18.439 103.879 18.439C103.289 18.439 102.788 18.2375 102.375 17.8344C101.961 17.4312 101.755 16.9415 101.755 16.3657V15.2055C101.755 14.6295 101.548 14.14 101.136 13.7368C100.723 13.3336 100.222 13.132 99.6318 13.132H96.8747C96.2848 13.132 95.6274 13.4364 94.9024 14.0454L88.8594 19.1549V30.7318C88.8594 31.3078 88.6489 31.7973 88.2279 32.2005C87.807 32.6036 87.3093 32.8053 86.7364 32.8053C86.1465 32.8053 85.6449 32.6036 85.2318 32.2005C84.8186 31.7973 84.612 31.3078 84.612 30.7318Z" fill="#ADDB9D"/>
<path d="M124.439 28.6583H132.1C132.689 28.6583 133.2 28.8599 133.63 29.2631C134.059 29.6662 134.275 30.1558 134.275 30.7318C134.275 31.3078 134.059 31.7973 133.63 32.2005C133.2 32.6036 132.689 32.8053 132.1 32.8053H124.161C123.149 32.8053 122.104 32.4926 121.025 31.8673C119.946 31.242 119.196 30.5426 118.775 29.7691L113.869 20.5125C113.212 19.1797 112.883 17.8137 112.883 16.415C112.883 14.8682 113.195 13.527 113.819 12.3915L118.775 3.23371C119.247 2.37791 119.98 1.6251 120.975 0.975033C121.969 0.325094 122.931 0 123.857 0H132.252C132.842 0 133.343 0.205737 133.756 0.617086C134.169 1.02856 134.376 1.51399 134.376 2.07349C134.376 2.64948 134.169 3.14721 133.756 3.56693C133.343 3.98652 132.842 4.19632 132.252 4.19632H124.161C123.487 4.2 122.938 4.58826 122.517 5.36111L117.814 13.9446C117.444 14.6188 117.258 15.4169 117.258 16.339C117.258 17.3104 117.461 18.1666 117.865 18.9073L122.365 27.3531C122.786 28.2258 123.478 28.6609 124.439 28.6583Z" fill="#31694E"/>
<path d="M162.343 16.4644V25.2273C162.343 27.0868 161.447 28.8065 159.651 30.3862C157.855 31.966 156.005 32.7558 154.1 32.7558H149.12C147.182 32.7558 145.326 31.9537 143.557 30.3491C141.787 28.7447 140.902 27.0374 140.902 25.2273V16.4644C140.902 14.6542 141.766 12.9469 143.494 11.3424C145.221 9.73793 147.097 8.93565 149.12 8.93565H154.1C156.005 8.9028 157.855 9.67629 159.651 11.256C161.447 12.8358 162.343 14.5719 162.343 16.4644ZM145.2 16.6371V25.0298C145.2 25.7868 145.478 26.3874 146.034 26.8317L147.627 28.1647C147.982 28.4608 148.478 28.609 149.12 28.609H154.05C154.775 28.609 155.432 28.3539 156.022 27.8438L157.312 26.733C157.835 26.338 158.096 25.7868 158.096 25.0791V16.6865C158.096 15.8638 157.835 15.2548 157.312 14.8599L155.819 13.6997C155.314 13.2884 154.724 13.0826 154.05 13.0826H149.65C148.69 13.0826 147.948 13.3049 147.426 13.7491L145.984 14.9586C145.461 15.3865 145.2 15.946 145.2 16.6371Z" fill="#31694E"/>
<path d="M186.215 11.8731V2.07349C186.215 1.4975 186.417 1.00802 186.823 0.604784C187.227 0.20168 187.715 0 188.288 0C188.878 0 189.389 0.20168 189.818 0.604784C190.248 1.00802 190.463 1.4975 190.463 2.07349V30.7318C190.463 31.3078 190.253 31.7973 189.831 32.2005C189.41 32.6036 188.912 32.8053 188.339 32.8053C187.732 32.8053 187.227 32.6036 186.823 32.2005C186.417 31.7973 186.215 31.3078 186.215 30.7318V29.8184C184.142 31.8097 182.204 32.8053 180.4 32.8053H176.785C175.335 32.8053 173.885 32.1964 172.435 30.9787L170.665 29.5223C170.261 29.1438 169.878 28.5102 169.515 27.6217C169.153 26.733 168.971 25.9019 168.971 25.1284V16.6865C168.971 15.7485 169.173 14.8393 169.577 13.959C169.983 13.0786 170.454 12.4162 170.994 11.9719L172.739 10.5155C173.986 9.4623 175.453 8.93565 177.138 8.93565H180.198C181.866 8.93565 183.384 9.51164 184.749 10.6636L186.215 11.8731ZM180.046 13.132H177.087C176.464 13.132 175.898 13.3542 175.393 13.7985L174.028 14.9586C173.556 15.37 173.319 15.8966 173.319 16.5384V25.3259C173.319 25.9019 173.599 26.4203 174.155 26.881L175.545 28.0413C175.983 28.4197 176.447 28.609 176.935 28.609H180.4C180.855 28.609 181.394 28.3539 182.018 27.8438L185.381 25.1284C185.937 24.6513 186.215 24.0588 186.215 23.3513V18.8588C186.215 17.8549 185.92 17.1144 185.33 16.6371L181.866 13.7491C181.411 13.3377 180.805 13.132 180.046 13.132Z" fill="#31694E"/>
<path d="M218.684 16.7853V21.7962C218.684 22.3557 218.473 22.8411 218.052 23.2524C217.63 23.6639 217.134 23.8697 216.56 23.8697H201.541V25.0791C201.541 25.7868 201.853 26.3874 202.477 26.881L203.715 27.8931C204.389 28.4033 205.03 28.6583 205.636 28.6583H216.56C217.134 28.6583 217.63 28.8599 218.052 29.2631C218.473 29.6662 218.684 30.1558 218.684 30.7318C218.684 31.2913 218.47 31.7767 218.039 32.1881C217.609 32.5996 217.116 32.8053 216.56 32.8053H205.358C204.618 32.8053 203.838 32.6531 203.02 32.3486C202.202 32.0441 201.6 31.7274 201.212 31.3983L199.315 29.7691C198.726 29.3084 198.233 28.6666 197.837 27.8438C197.441 27.0209 197.242 26.2639 197.242 25.5728V16.0694C197.242 15.5264 197.457 14.7941 197.888 13.8725C198.318 12.951 198.861 12.2352 199.518 11.725L201.288 10.3673C202.451 9.4458 203.741 8.98512 205.157 8.98512H211.123C212.624 8.98512 214.04 9.59395 215.372 10.8116L216.965 12.2928C218.111 13.2966 218.684 14.7941 218.684 16.7853ZM201.592 16.4644V19.6733H214.487V16.7853C214.487 16.0118 214.242 15.4194 213.753 15.008L212.515 13.9465C211.874 13.4364 211.301 13.1813 210.795 13.1813H205.46C204.802 13.1813 204.205 13.4035 203.665 13.8479L202.426 14.8599C201.87 15.2713 201.592 15.8062 201.592 16.4644Z" fill="#31694E"/>
</svg>
